# xmcd
# Track frame offsets:
# 150
# 15540
# 33752
# 58405
# 78245
# 90547
# 109185
# 124217
# 152115
# 173340
# 190857
#
# Disc length: 2798 seconds
# Revision: 0
# Processed by: cddbd v1.4PL0 Copyright (c) Steve Scherf et al.
# Submitted via: VisiTrax 2.9.5.180 - For more info visit www.synapsa.com
#
DISCID=7f0aec0b
DTITLE=Lorraine Rawls - Through Her Eyes
DYEAR=2001
DGENRE=Cowboy
TTITLE0=Border Dreams
TTITLE1=Cactus
TTITLE2=Through Her Eyes
TTITLE3=The Promised Land
TTITLE4=The River That Never Runs Dry
TTITLE5=Hearts And Horses
TTITLE6=This Arizona Night
TTITLE7=Cancion de Corazon
TTITLE8=A Wish To Bring You Home
TTITLE9=That's How It Feels
TTITLE10=This Old Road
EXTD=
EXTT0=
EXTT1=
EXTT2=
EXTT3=
EXTT4=
EXTT5=
EXTT6=
EXTT7=
EXTT8=
EXTT9=
EXTT10=
PLAYORDER=
